<?xml version="1.0" encoding="UTF-8"?>
<svg xmlns="http://www.w3.org/2000/svg"
     viewBox="126.495 280.677 542.246 82.867"
     width="542.246" height="82.867"
     preserveAspectRatio="xMidYMid meet"
     role="img" aria-label="AeroNex Labs">
  <g fill="#ffffff">
    <path d="m 0,0 h 9.586 v -53.581 h 15.63 V -62.15 H 0 Z"
          transform="matrix(1.3333333,0,0,-1.3333333,493.43013,280.678)" />
    <path d="M 0,0 C -1.421,10.556 -3.306,26.733 -4.018,33.76 H -4.367 C -4.636,28.639 -7.526,9.172 -8.765,0 Z m -10.038,-8.539 -1.094,-10.741 h -9.749 l 10.01,62.149 H 2.672 L 13.066,-19.28 H 3.049 L 1.457,-8.539 Z"
          transform="matrix(1.3333333,0,0,-1.3333333,558.41667,337.83693)" />
    <path d="m 0,0 h 3.2 c 5.533,0 6.913,2.444 6.913,8.461 v 4.138 c 0,6.062 -1.536,8.663 -7.643,8.663 H 0 Z m 2.421,29.012 c 5.359,0 6.963,1.656 6.963,7.818 v 2.426 c 0,5.158 -1.834,7.148 -6.419,7.148 H 0 V 29.012 Z M -9.258,54.318 H 3.501 c 10.76,0 14.896,-5.036 14.896,-14.15 v -2.285 c 0,-8.816 -3.053,-11.361 -5.769,-12.489 2.772,-1.105 6.918,-3.423 6.918,-12.467 V 8.216 c 0,-10.51 -4.381,-16.048 -15.199,-16.048 H -9.258 Z"
          transform="matrix(1.3333333,0,0,-1.3333333,596.9572,353.10187)" />
    <path d="m 0,0 v -3.727 c 0,-4.488 1.347,-6.986 4.881,-6.986 3.626,0 4.564,3.434 4.564,7.35 0,6.482 -1.398,8.493 -7.865,13.596 -6.489,5.124 -9.956,8.4 -9.956,17.327 0,7.948 2.404,15.969 13.29,15.958 11.131,-0.011 12.85,-7.946 12.85,-14.489 V 25.808 H 8.542 v 2.972 c 0,4.2 -0.708,6.741 -3.798,6.741 -3.022,0 -3.82,-2.628 -3.82,-6.625 0,-4.26 0.809,-6.347 6.11,-10.226 9.025,-6.673 11.792,-10.549 11.792,-20.638 0,-8.556 -2.998,-16.663 -14.252,-16.663 -11.156,0 -13.875,7.108 -13.875,15.052 V 0 Z"
          transform="matrix(1.3333333,0,0,-1.3333333,643.6392,338.70253)" />
    <path d="M 0,0 H -14.475 V -18.685 H 2.766 V -27.5 H -24.06 V 34.65 H 2.766 V 25.753 H -14.475 V 9.114 H 0 Z"
          transform="matrix(1.3333333,0,0,-1.3333333,217.49987,326.878)" />
    <path d="M 0,0 H 2.198 C 7.27,0 9.134,1.912 9.134,8.67 v 2.132 c 0,4.804 -0.993,7.729 -6.426,7.729 H 0 Z m 0,-7.914 v -27.791 h -9.586 v 62.15 H 3.691 c 9.457,0 15.04,-3.789 15.04,-14.977 V 9.102 c 0,-9.55 -3.92,-11.98 -6.327,-12.966 3.625,-1.7 5.698,-4.313 5.698,-12.746 0,-5.232 -0.093,-15.329 0.569,-19.095 H 9.414 c -0.827,3.755 -0.652,13.963 -0.652,18.477 0,7.577 -0.975,9.314 -6.538,9.314 z"
          transform="matrix(1.3333333,0,0,-1.3333333,243.44027,315.93747)" />
    <path d="m 0,0 v -30.372 c 0,-5.018 1.811,-7.375 5.17,-7.375 3.618,0 5.238,2.198 5.238,7.508 V 0.069 c 0,4.793 -1.471,7.443 -5.249,7.443 C 1.804,7.512 0,5.112 0,0 M 19.891,-0.912 V -29.11 c 0,-11.572 -4.911,-17.042 -15.141,-17.042 -9.814,0 -14.233,5.611 -14.233,16.883 v 28.426 c 0,11.565 5.822,16.84 14.823,16.84 9.155,0 14.551,-5.29 14.551,-16.909"
          transform="matrix(1.3333333,0,0,-1.3333333,290.79107,302.00747)" />
    <path d="m 0,0 v 62.15 h 11.1 c 2.478,-8.77 9.894,-39.449 10.553,-42.741 h 0.104 C 21.314,27.052 21.291,35.798 21.291,46.01 V 62.15 H 30.14 V 0 H 19.46 C 17.5,7.425 9.228,41.51 8.607,44.121 H 8.513 C 8.967,36.596 8.93,28.172 8.93,16.996 V 0 Z"
          transform="matrix(1.3333333,0,0,-1.3333333,328.36293,363.54413)" />
    <path d="M 0,0 -6.133,22.476 H -6.225 L -12.778,0 h -9.923 l 11,31.614 -10.502,30.536 h 10.59 l 5.726,-20.568 h 0.094 L -0.126,62.15 H 9.89 L -0.563,33.04 10.612,0 Z"
          transform="matrix(1.3333333,0,0,-1.3333333,451.41947,363.54413)" />
    <path d="M 0,0 H -14.475 V -18.685 H 2.766 V -27.5 H -24.06 V 34.65 H 2.766 V 25.753 H -14.475 V 9.114 H 0 Z"
          transform="matrix(1.3333333,0,0,-1.3333333,410.29693,326.878)" />
    <path d="M 0,0 C 0.681,0.936 -3.511,11.638 -3.511,11.638 L -9.106,-7.872 C -6.34,-2.553 0,0 0,0 m 1.915,-8.383 c -12.894,-4 -16.468,-23.043 -16.468,-23.043 h -9 l 16.83,62.15 h 6.215 L 7.076,2.173 c 0,0 2.71,-0.381 3.222,-0.896 C 11.578,-0.012 10,-7.809 10,-7.809 l 6,-23.617 H 8.128 c 0,0 -4.116,14.47 -4.341,14.234 -1.766,-1.851 -12.745,-7.567 -12.146,-4.977 1.763,7.616 13.619,14.824 10.274,13.786"
          transform="matrix(1.3333333,0,0,-1.3333333,157.89907,321.6432)" />
  </g>
</svg>
